<svg version="1.1" viewBox="0 0 150 150" xmlns="http://www.w3.org/2000/svg">
  <rect x="7.5729e-6" y="2.2641e-6" width="150" height="150" fill="#fff"/>
  <path d="m75 14.844v60.156h4.2969v-60a60.156 60.156 0 0 0-4.2969-0.15666zm-12.891 1.4267a60.156 60.156 0 0 0-47.266 58.73h-8.5937a68.75 68.75 0 0 0 0.30772 4.2969h8.5882a60.156 60.156 0 0 0 13.674 34.185l3.3178-2.7639a55.859 55.859 0 0 1-12.689-31.421h38.364v48.676a55.859 55.859 0 0 1-10.496-4.5263l-2.1428 3.7486a60.156 60.156 0 0 0 16.936 6.5572v-88.83h-34.062a55.859 55.859 0 0 1 34.062-24.243zm38.325 4.2241-1.8127 3.8884a55.859 55.859 0 0 1 32.238 50.617h4.2969a60.156 60.156 0 0 0-34.722-54.505zm-74.848 28.724h32.227v25.781h-38.672a55.859 55.859 0 0 1 6.4453-25.781zm49.414 34.375v51.562a60.156 60.156 0 0 0 59.496-51.562h-4.3248zm4.2969 4.2969h49.89a55.859 55.859 0 0 1-49.89 42.661z"/>
  <circle cx="38.477" cy="64.258" r="6.4453"/>
  <rect x="34.18" y="83.594" width="8.5938" height="21.484" ry="5.3711"/>
  <path d="m4.455e-7 6.519e-6v66.406h6.8115a68.75 68.75 0 0 1 68.188-60.156 68.75 68.75 0 0 1 68.75 68.75 68.75 68.75 0 0 1-68.75 68.75 68.75 68.75 0 0 1-67.505-55.859h-7.4951v62.109h150v-150z"/>
</svg>
