<svg version="1.1" viewBox="0 0 156 52" xmlns="http://www.w3.org/2000/svg">
	<rect x="0" y="0" width="156" height="52" fill="#ffffff" />
  <path d="m25.844 1.957a24 24 0 0 0-23.566 19.5h1.5312a22.5 22.5 0 0 1 22.035-18 22.5 22.5 0 0 1 22.5 22.5 22.5 22.5 0 0 1-22.5 22.5 22.5 22.5 0 0 1-22.293-19.5h-1.5137a24 24 0 0 0 23.807 21 24 24 0 0 0 24-24 24 24 0 0 0-24-24zm29.049 0.085938v22.258h1.8555v-11.129h20.4v-1.8555h-20.4v-7.418h20.4v-1.8555zm25.67 0v18.547s-4.15e-4 3.7109 3.709 3.7109h14.838s3.709-0.0015 3.709-3.7109v-18.547h-1.8555v18.547s1e-3 1.8555-1.8535 1.8555h-14.838s-1.8555-7.68e-4 -1.8555-1.8555v-18.547zm25.668 0v22.258h1.8555v-20.234l18.547 20.234h1.8555v-22.258h-1.8555v20.234l-18.547-20.234zm25.67 0v22.258h22.256v-1.8555h-20.402v-9.2734h20.402v-1.8555h-20.402v-7.418h20.402v-1.8555zm-106.06 2.9141a21 21 0 0 0-20.893 19.5h-3a24 24 0 0 0-0.10742 1.5h3a21 21 0 0 0 6.1719 14.828l1.0586-1.0586a19.5 19.5 0 0 1-5.7305-13.77h18v19.389a19.5 19.5 0 0 1-3.8496-0.66211l-0.41211 1.4414a21 21 0 0 0 5.7617 0.83203v-36h-12.418a19.5 19.5 0 0 1 12.418-4.5zm3 0.22461v17.775h1.5v-17.51a21 21 0 0 0-1.5-0.26562zm6.9551 2.2871-0.71094 1.3223a19.5 19.5 0 0 1 10.008 14.166h1.5117a21 21 0 0 0-10.809-15.488zm-23.961 4.9883h12.506v12h-17.893a19.5 19.5 0 0 1 5.3867-12zm3.5059 4.5c-0.831 0-1.5 0.669-1.5 1.5v1.5c0 0.831 0.669 1.5 1.5 1.5h1.5c0.831 0 1.5-0.669 1.5-1.5v-1.5c0-0.831-0.669-1.5-1.5-1.5zm13.5 10.5v19.277a21 21 0 0 0 17.934-19.277h-1.5039zm-13.5 1.5c-0.4155 0-0.75 0.3345-0.75 0.75v6c0 0.4155 0.3345 0.75 0.75 0.75h1.5c0.4155 0 0.75-0.3345 0.75-0.75v-6c0-0.4155-0.3345-0.75-0.75-0.75zm15 0h14.701a19.5 19.5 0 0 1-14.701 15.908zm20.785 0a25.5 25.5 0 0 1-0.23438 1.5h103.26v-1.5zm3.7637 5.877v15.209h10.139c1.2674 0 5.0703-2.5339 5.0703-7.6035 0-5.0696-3.8029-7.6055-5.0703-7.6055zm49.582 0s-2.5352 3.38e-4 -2.5352 2.5352v10.141s3.5e-4 2.5332 2.5352 2.5332h10.139s2.5352 0.0016 2.5352-2.5332v-3.8027h-6.3379v1.2676h5.0703v2.5352s-1.7e-4 1.2656-1.2676 1.2656h-10.139s-1.2676 0.0018-1.2676-1.2656v-10.141s1.7e-4 -1.2676 1.2676-1.2676h10.139s1.2676 1.7e-4 1.2676 1.2676v2.5352h1.2676v-2.5352s-3.4e-4 -2.5352-2.5352-2.5352zm-48.314 1.2676h8.4492c1.0562 0 4.2246 2.1132 4.2246 6.3379 0 4.2247-3.1684 6.3359-4.2246 6.3359h-8.4492zm16.637 1.2676a0.6337 0.6337 0 0 0-0.63281 0.63476 0.6337 0.6337 0 0 0 0.63281 0.63281 0.6337 0.6337 0 0 0 0.63477-0.63281 0.6337 0.6337 0 0 0-0.63477-0.63476zm-0.63281 2.5352v10.139h1.2676v-10.139zm5.8633 0s-2.5352 3.37e-4 -2.5352 2.5352v5.0703s3.37e-4 2.5332 2.5352 2.5332h7.6035v-1.2676h-7.6035s-1.2676 0.0018-1.2676-1.2656v-5.0703s1.68e-4 -1.2676 1.2676-1.2676h7.6035v-1.2676zm12.201 0s-2.5352 3.4e-4 -2.5352 2.5352v5.0703s3.4e-4 2.5332 2.5352 2.5332h5.0703s2.5332 0.0016 2.5332-2.5332h-1.2676s0.0018 1.2656-1.2656 1.2656h-5.0703s-1.2676 0.0018-1.2676-1.2656v-2.5352h8.8711v-2.5352s0.0016-2.5352-2.5332-2.5352zm31.229 0s-2.5352 3.43e-4 -2.5352 2.5352v5.0703s3.4e-4 2.5332 2.5352 2.5332h1.2676s3.221-6.78e-4 5.0703-2.2969v2.2969h1.2676v-7.6035s-3.5e-4 -2.5352-2.5352-2.5352zm9.3789 0v10.139h1.2676v-7.6035s1.6e-4 -1.2676 1.2676-1.2676h1.2676s1.2676 1.71e-4 1.2676 1.2676v7.6035h1.2676v-7.6035s1.7e-4 -1.2676 1.2676-1.2676h1.2656s1.2676 1.71e-4 1.2676 1.2676v7.6035h1.2676v-7.6035s-3.5e-4 -2.5352-2.5352-2.5352h-1.2656s-1.1556 0.0016-1.9062 0.78125c-0.37242-0.4355-0.96125-0.78125-1.8965-0.78125h-1.2676s-0.63386-4.47e-4 -1.2676 0.31641v-0.31641zm15.717 0s-2.5352 3.4e-4 -2.5352 2.5352v5.0703s3.3e-4 2.5332 2.5352 2.5332h5.0684s2.5352 0.0016 2.5352-2.5332h-1.2676s-1.7e-4 1.2656-1.2676 1.2656h-5.0684s-1.2676 0.0018-1.2676-1.2656v-2.5352h8.8711v-2.5352s-3.5e-4 -2.5352-2.5352-2.5352zm-56.324 1.2676h5.0703c1.2674 0 1.2656 1.2676 1.2656 1.2676v1.2676h-7.6035v-1.2676c0-1.2674 1.2676-1.2676 1.2676-1.2676zm31.229 0h5.0703c1.2674 0 1.2676 1.2676 1.2676 1.2676v1.2676c0 5.0696-5.0703 5.0684-5.0703 5.0684h-1.2676c-1.2674 0-1.2676-1.2656-1.2676-1.2656v-5.0703c0-1.2674 1.2676-1.2676 1.2676-1.2676zm25.096 0h5.0684c1.2674 0 1.2676 1.2676 1.2676 1.2676v1.2676h-7.6035v-1.2676c0-1.2674 1.2676-1.2676 1.2676-1.2676z"/>
</svg>
